<?xml version="1.0" encoding="utf-8"?>
<!-- Generator: Adobe Illustrator 26.2.1, SVG Export Plug-In . SVG Version: 6.00 Build 0)  -->
<svg version="1.1" xmlns="http://www.w3.org/2000/svg" xmlns:xlink="http://www.w3.org/1999/xlink" x="0px" y="0px"
	 viewBox="0 0 784 161.3" style="enable-background:new 0 0 784 161.3;" xml:space="preserve">
<style type="text/css">
	.st0{fill:#8DD445;}
	.st1{fill:#FFFFFF;}
</style>
<g id="BG_1_">
</g>
<g id="graphics">
	<g>
		<path class="st0" d="M247.4,70c-5.1-31.2-18.8-36.9-35.4-37.8l3.5-4.6c1.1-1.5,1.3-3.5,0.5-5.2c-0.8-1.7-2.5-2.7-4.4-2.7h-26.3
			c-10,0-19.5,4.6-25.7,12.3h-42.9c-26.7,0-48.3,15.1-60.2,29.9c-15.6,0.8-26,6.9-31.1,18.1c-2.5,5.6-6.8,16.5-10.6,29.1
			c-1.7,5.6-0.6,11.4,2.8,16.1c3.5,4.7,8.9,7.4,14.8,7.4h17.3c5.8,9.9,16.6,16.6,28.9,16.6s23.1-6.7,28.9-16.6h18.1
			c5.4,0,10.6-2.2,14.4-6h25.8c4.5,13.1,17,22.6,31.7,22.6c14.7,0,27.1-9.4,31.7-22.6c3.6-0.1,7.3-0.6,10.8-1.9
			c7.3-2.8,11.5-8.8,12.1-17.3C252.1,105.1,250.2,87.4,247.4,70z M151.2,41.8l-17.1,19.9H69.8c10.8-10.4,27.4-19.9,46.8-19.9H151.2z
			 M78.5,137.5c-12.1,0-21.9-9.8-21.9-21.9s9.8-21.9,21.9-21.9c12.1,0,21.9,9.8,21.9,21.9S90.6,137.5,78.5,137.5z M125.5,122.7
			h-14.2c0.5-2.3,0.8-4.6,0.8-7.1c0-18.5-15-33.5-33.5-33.5C60,82.1,45,97.1,45,115.6c0,2.4,0.3,4.8,0.8,7.1H32.3
			c-2.8,0-5.3-1.3-6.9-3.5c-1.6-2.1-2.1-4.8-1.3-7.4c3.6-12,7.7-22.5,10.1-27.8c3.8-8.4,12.3-12.4,25.9-12.4h76.2
			c1.4,0,2.8-0.6,3.7-1.7l25.6-29.8c0.1-0.1,0.2-0.3,0.3-0.5c4.3-6.4,11.5-10.2,19.1-10.2h16.4l-67.8,89
			C131.8,121.1,128.7,122.7,125.5,122.7z M197.3,137.5c-12.1,0-21.9-9.8-21.9-21.9s9.8-21.9,21.9-21.9c12.1,0,21.9,9.8,21.9,21.9
			S209.4,137.5,197.3,137.5z M230.8,116.5c0-0.3,0-0.6,0-0.9c0-18.5-15-33.5-33.5-33.5c-18.5,0-33.5,15-33.5,33.5c0,0.4,0,0.7,0,1.1
			h-16.3l57-74.8h1c16.9,0,27.5,1.4,32.1,29.7c2.9,17.9,4.4,33.1,4.4,35.2C241.6,113.4,238.1,115.8,230.8,116.5z"/>
		<path class="st0" d="M197.3,101.6c-7.7,0-14,6.3-14,14c0,7.7,6.3,14,14,14c7.7,0,14-6.3,14-14C211.3,107.9,205,101.6,197.3,101.6z
			 M197.3,119.7c-2.3,0-4.1-1.9-4.1-4.1c0-2.3,1.9-4.1,4.1-4.1c2.3,0,4.1,1.9,4.1,4.1C201.5,117.9,199.6,119.7,197.3,119.7z"/>
		<path class="st0" d="M78.5,101.6c-7.7,0-14,6.3-14,14c0,7.7,6.3,14,14,14s14-6.3,14-14C92.5,107.9,86.2,101.6,78.5,101.6z
			 M78.5,119.7c-2.3,0-4.1-1.9-4.1-4.1c0-2.3,1.9-4.1,4.1-4.1s4.1,1.9,4.1,4.1C82.7,117.9,80.8,119.7,78.5,119.7z"/>
	</g>
	<g>
		<path class="st1" d="M333,99.2h-38.9l-6.4,14h-15.2l33.4-74.5h15.3l33.4,74.5h-15.3L333,99.2z M313.6,54.4l-13.8,31.7h27.7
			L313.6,54.4z"/>
		<path class="st1" d="M405.8,56.7c-2.6-4.3-9.6-8.3-17.7-8.3c-10.4,0-15.4,4.4-15.4,9.9c0,6.5,7.7,8.3,16.6,9.4
			c15.5,1.9,30,6,30,23.7c0,16.6-14.7,23.7-31.3,23.7c-15.2,0-26.9-4.7-32.4-18.3l11.7-6.1c3.3,8.2,11.9,11.8,21,11.8
			c8.8,0,17.1-3.1,17.1-11.2c0-7-7.3-9.9-17.2-11c-15.2-1.8-29.3-5.9-29.3-22.6c0-15.3,15.1-21.6,28.8-21.7
			c11.6,0,23.6,3.3,29.3,14.8L405.8,56.7z"/>
		<path class="st1" d="M465.3,91.3h-21.1v21.9h-14V38.7c11.7,0,23.4-0.1,35.1-0.1C501.7,38.6,501.8,91.3,465.3,91.3z M444.2,78.4
			h21.1c18,0,17.9-26.4,0-26.4h-21.1V78.4z"/>
		<path class="st1" d="M502.2,113.2V38.7h13.9v74.5H502.2z"/>
		<path class="st1" d="M595.4,113.2h-16.7L557,88.3h-13.5v24.9h-14V38.6c11.8,0,23.6,0.1,35.4,0.1c17.6,0.1,26.8,11.8,26.8,24.7
			c0,10.2-4.7,20.5-18.8,23.4l22.6,25.4V113.2z M543.5,51.8v23.8h21.4c8.9,0,12.8-6,12.8-11.9s-3.9-11.9-12.8-11.9H543.5z"/>
		<path class="st1" d="M601.3,113.2V38.7h13.9v74.5H601.3z"/>
		<path class="st1" d="M677.3,38.6h14v74.6h-8.7v0.1L643.5,63v50.2h-14V38.7h11.4l36.5,46.2V38.6z"/>
		<path class="st1" d="M759.8,113.2H704c0-24.8,0-49.7,0-74.5h55.7v13.6H718v17.1h40.3v13.1H718v16.8h41.8V113.2z"/>
	</g>
</g>
</svg>
