<?xml version="1.0" encoding="utf-8"?>
<!-- Generator: Adobe Illustrator 26.2.1, SVG Export Plug-In . SVG Version: 6.00 Build 0)  -->
<svg version="1.1" xmlns="http://www.w3.org/2000/svg" xmlns:xlink="http://www.w3.org/1999/xlink" x="0px" y="0px"
	 viewBox="0 0 784 161.3" style="enable-background:new 0 0 784 161.3;" xml:space="preserve">
<style type="text/css">
	.st0{fill:#8DD445;}
	.st1{fill:#FFFFFF;}
	.st2{font-family:'NexaBold';}
	.st3{font-size:106.3915px;}
</style>
<g id="BG_1_">
</g>
<g id="graphics">
	<g>
		<path class="st0" d="M247.4,70c-5.1-31.2-18.8-36.9-35.4-37.8l3.5-4.6c1.1-1.5,1.3-3.5,0.5-5.2c-0.8-1.7-2.5-2.7-4.4-2.7h-26.3
			c-10,0-19.5,4.6-25.7,12.3h-42.9c-26.7,0-48.3,15.1-60.2,29.9c-15.6,0.8-26,6.9-31.1,18.1c-2.5,5.6-6.8,16.5-10.6,29.1
			c-1.7,5.6-0.6,11.4,2.8,16.1c3.5,4.7,8.9,7.4,14.8,7.4h17.3c5.8,9.9,16.6,16.6,28.9,16.6s23.1-6.7,28.9-16.6h18.1
			c5.4,0,10.6-2.2,14.4-6h25.8c4.5,13.1,17,22.6,31.7,22.6c14.7,0,27.1-9.4,31.7-22.6c3.6-0.1,7.3-0.6,10.8-1.9
			c7.3-2.8,11.5-8.8,12.1-17.3C252.1,105.1,250.2,87.4,247.4,70z M151.2,41.8l-17.1,19.9H69.8c10.8-10.4,27.4-19.9,46.8-19.9H151.2z
			 M78.5,137.5c-12.1,0-21.9-9.8-21.9-21.9s9.8-21.9,21.9-21.9c12.1,0,21.9,9.8,21.9,21.9S90.6,137.5,78.5,137.5z M125.5,122.7
			h-14.2c0.5-2.3,0.8-4.6,0.8-7.1c0-18.5-15-33.5-33.5-33.5C60,82.1,45,97.1,45,115.6c0,2.4,0.3,4.8,0.8,7.1H32.3
			c-2.8,0-5.3-1.3-6.9-3.5c-1.6-2.1-2.1-4.8-1.3-7.4c3.6-12,7.7-22.5,10.1-27.8c3.8-8.4,12.3-12.4,25.9-12.4h76.2
			c1.4,0,2.8-0.6,3.7-1.7l25.6-29.8c0.1-0.1,0.2-0.3,0.3-0.5c4.3-6.4,11.5-10.2,19.1-10.2h16.4l-67.8,89
			C131.8,121.1,128.7,122.7,125.5,122.7z M197.3,137.5c-12.1,0-21.9-9.8-21.9-21.9s9.8-21.9,21.9-21.9c12.1,0,21.9,9.8,21.9,21.9
			S209.4,137.5,197.3,137.5z M230.8,116.5c0-0.3,0-0.6,0-0.9c0-18.5-15-33.5-33.5-33.5c-18.5,0-33.5,15-33.5,33.5c0,0.4,0,0.7,0,1.1
			h-16.3l57-74.8h1c16.9,0,27.5,1.4,32.1,29.7c2.9,17.9,4.4,33.1,4.4,35.2C241.6,113.4,238.1,115.8,230.8,116.5z"/>
		<path class="st0" d="M197.3,101.6c-7.7,0-14,6.3-14,14c0,7.7,6.3,14,14,14c7.7,0,14-6.3,14-14C211.3,107.9,205,101.6,197.3,101.6z
			 M197.3,119.7c-2.3,0-4.1-1.9-4.1-4.1c0-2.3,1.9-4.1,4.1-4.1c2.3,0,4.1,1.9,4.1,4.1C201.5,117.9,199.6,119.7,197.3,119.7z"/>
		<path class="st0" d="M78.5,101.6c-7.7,0-14,6.3-14,14c0,7.7,6.3,14,14,14s14-6.3,14-14C92.5,107.9,86.2,101.6,78.5,101.6z
			 M78.5,119.7c-2.3,0-4.1-1.9-4.1-4.1c0-2.3,1.9-4.1,4.1-4.1s4.1,1.9,4.1,4.1C82.7,117.9,80.8,119.7,78.5,119.7z"/>
	</g>
	<text transform="matrix(1 0 0 1 274.9638 113.2135)" class="st1 st2 st3">Aspirine</text>
</g>
</svg>
