<?xml version="1.0" encoding="utf-8"?>
<!-- Generator: Adobe Illustrator 24.0.1, SVG Export Plug-In . SVG Version: 6.00 Build 0)  -->
<svg version="1.1" id="Layer_1" xmlns="http://www.w3.org/2000/svg" xmlns:xlink="http://www.w3.org/1999/xlink" x="0px" y="0px"
	 viewBox="0 0 444 177.7" style="enable-background:new 0 0 444 177.7;" xml:space="preserve">
<style type="text/css">
	.st0{opacity:0.1;}
	.st1{fill:none;stroke:#2C86FF;stroke-width:5;stroke-opacity:0.5;}
	.st2{opacity:0.25;}
	.st3{fill:none;stroke:#4C40FF;stroke-width:5;stroke-opacity:0.5;}
	.st4{opacity:0.4;}
	.st5{fill:none;stroke:#791FEC;stroke-width:5;stroke-opacity:0.5;}
	.st6{opacity:0.55;}
	.st7{fill:none;stroke:#7514B2;stroke-width:5;stroke-opacity:0.5;}
	.st8{opacity:0.7;}
	.st9{fill:none;stroke:#DE3EC0;stroke-width:5;stroke-opacity:0.5;}
	.st10{opacity:0.85;}
	.st11{fill:none;stroke:#DC4F4F;stroke-width:5;stroke-opacity:0.5;}
	.st12{fill:none;stroke:#DE3EC0;stroke-width:10;stroke-linecap:round;stroke-linejoin:round;stroke-opacity:0.5;}
</style>
<g class="st0">
	<path class="st1" d="M24.2,97.3c29.2,3.5,57.3,80.6,99.9,80.4C156,177.5,219.4,3.2,275.8,2.9c50.3-0.3,112.7,166.7,148.8,159.3"/>
</g>
<g class="st2">
	<path class="st3" d="M24.2,97.4c29.2,3.5,57,70.8,99.6,70.5c31.8-0.2,85.4-156.3,141.7-156.6c50.3-0.3,109.5,150,146,149.7"/>
</g>
<g class="st4">
	<path class="st5" d="M24.2,97.4c29.2,3.5,55.8,61.3,98.4,61.1c31.8-0.2,78.3-137,134.6-137.3c50.4-0.3,111.6,139.1,148,138.9"/>
</g>
<g class="st6">
	<path class="st7" d="M24.2,98.1c29.2,3.5,51.8,50.5,94.4,50.2c31.8-0.2,75.7-117.4,132-117.7c50.4-0.3,110.2,127.2,146.6,126.9"/>
</g>
<g class="st8">
	<path class="st9" d="M24.2,98.1c29.2,3.5,48.7,42.4,91.3,42.2c31.8-0.2,71.1-100.2,127.4-100.5c50.4-0.3,109.3,111.6,145.7,111.4"
		/>
</g>
<g class="st10">
	<path class="st11" d="M24.2,98.1c29.2,3.5,45.4,33,88,32.7c31.8-0.2,68.1-79.8,124.4-80.1c50.4-0.3,103.8,94.5,140.2,94.3"/>
</g>
<path class="st12" d="M32.7,102.9C56.3,113,76.4,121,87.9,123.5c38.9,8.5,61.2-26.6,86.8-44.6c21.2-14.9,41.5-21.3,65.6-16.7
	c24.1,4.6,51.6,31.6,67.5,42.7c22.6,15.8,40,28.1,58.3,28"/>
</svg>
