<?xml version="1.0" encoding="utf-8"?>
<!-- Generator: Adobe Illustrator 24.0.1, SVG Export Plug-In . SVG Version: 6.00 Build 0)  -->
<svg version="1.1" id="Layer_1" xmlns="http://www.w3.org/2000/svg" xmlns:xlink="http://www.w3.org/1999/xlink" x="0px" y="0px"
	 viewBox="0 0 311 271" style="enable-background:new 0 0 311 271;" xml:space="preserve">
<style type="text/css">
	.st0{fill:none;stroke:#493F72;stroke-width:2;}
	.st1{opacity:0.61;}
	.st2{opacity:0.35;}
	.st3{fill:none;stroke:#CB6A8D;stroke-width:2;}
	.st4{opacity:0.68;}
	.st5{fill:none;stroke:#7B95CE;stroke-width:2;}
	.st6{opacity:0.32;}
	.st7{fill:none;stroke:#CD4576;stroke-width:2;}
	.st8{fill:none;stroke:#98004B;stroke-width:2;}
	.st9{opacity:0.5;}
	.st10{opacity:0.29;}
</style>
<path class="st0" d="M90.2,54.2c37.9-42.8,119.3-24.6,149.7,14.6c22.6,50.5,31.4,78.5,10.5,131.2c-23.6,56.3-149.3,61.6-149.7-14.6
	C106.2,112.9,53.9,93,90.2,54.2z"/>
<g class="st1">
	<path class="st0" d="M95.7,49.2C136.2,9.5,216.2,33.8,244,75.2c19.3,52.1,26.4,80.7,2.1,131.7c-27.1,54.4-152.8,50-148.3-25.9
		C107.9,109,57,85.2,95.7,49.2z"/>
</g>
<g class="st2">
	<path class="st0" d="M100,45.8c42.4-37.4,121.1-8.6,146.8,34.3c16.8,53.1,22.5,82.1-4.2,131.6C213,264.4,87.8,252.9,95.9,177.4
		C109.4,106.1,59.7,79.5,100,45.8z"/>
</g>
<path class="st3" d="M200.1,38.9c55,37.8,77.1,93.8,56.9,140.1c-15.3,39.8-58.9,44.5-112,67.3C84,277.1,24.9,142.1,88.1,106.2
	C138.6,79,153.7,11.8,200.1,38.9z"/>
<g class="st4">
	<path class="st5" d="M206.6,42.4c52.5,41.7,70.9,99,47.6,143.7c-17.9,38.6-61.8,40-116.4,58.9C74.7,271.1,24.6,132.3,90.1,101.2
		C142.4,77.8,162,12,206.6,42.4z"/>
</g>
<g class="st6">
	<path class="st7" d="M214.4,47.3c48.9,46.2,62.5,104.9,35.6,147.3c-21.1,36.7-65.1,34.2-121.1,48C63.6,262.9,25.2,120.3,93.2,95.3
		C147.4,76.7,172.4,13,214.4,47.3z"/>
</g>
<path class="st8" d="M235.6,211.6c-54.2,37.4-101.6,33-150.3,1.2c-42.1-27.2-42.1-89.2-24.1-129.5c36.5-41.6,118.6-72,150.3-1.2
	C234.1,132,276.9,178.3,235.6,211.6z"/>
<g class="st9">
	<path class="st8" d="M230.7,217.3c-56.5,33.1-103.5,25.2-150-10.2c-40.2-30.3-36.4-92.1-15.7-130.9c39.1-38.7,122.9-62.8,150,10.2
		C234.3,137.9,274,187.2,230.7,217.3z"/>
</g>
<g class="st10">
	<path class="st8" d="M229.8,218.2C173,250.6,126.1,242,79.9,206.1C40,175.4,44.6,113.6,65.6,75.1c39.5-38.2,123.6-61.2,149.9,12.1
		C234.2,138.8,273.5,188.7,229.8,218.2z"/>
</g>
</svg>
