<svg width="346" height="345" viewBox="0 0 346 345" fill="none" xmlns="http://www.w3.org/2000/svg">
<path d="M185.045 65.2021C230.075 65.2021 266.485 100.48 266.485 143.744C266.485 187.009 230.075 222.286 185.045 222.286C140.016 222.286 103.606 187.009 103.606 143.744C103.606 100.48 140.016 65.2021 185.045 65.2021Z" stroke="#F4B119" stroke-width="5"/>
<path d="M337.387 242.823C332.663 252.36 320.825 256.395 310.947 251.834C301.069 247.273 296.89 235.845 301.613 226.307C306.337 216.77 318.174 212.735 328.053 217.296C337.931 221.856 342.11 233.285 337.387 242.823Z" fill="#F4B119"/>
<path d="M28.2421 111.99C25.3001 117.931 17.9259 120.444 11.7734 117.603C5.6199 114.762 3.01692 107.643 5.95886 101.702C8.90113 95.7623 16.275 93.2499 22.4275 96.0906C28.5806 98.931 31.184 106.049 28.2421 111.99Z" fill="#F4B119"/>
<path d="M149.092 213.007C147.231 216.765 142.567 218.355 138.675 216.558C134.782 214.761 133.136 210.258 134.997 206.5C136.858 202.743 141.522 201.153 145.414 202.95C149.306 204.747 150.953 209.25 149.092 213.007Z" fill="#0F56F5"/>
<path d="M128.287 59.3984C126.426 63.1563 121.762 64.7461 117.87 62.9491C113.977 61.1519 112.331 56.6486 114.192 52.8907C116.053 49.1332 120.717 47.5441 124.609 49.341C128.501 51.1378 130.148 55.6404 128.287 59.3984Z" fill="#0F56F5"/>
<path d="M187.673 314.742C191.829 313.622 196.138 315.966 197.298 319.978C198.459 323.99 196.031 328.151 191.876 329.271C187.721 330.391 183.411 328.047 182.251 324.036C181.091 320.024 183.518 315.863 187.673 314.742Z" fill="#0F56F5"/>
<path d="M213.374 63.0608C217.529 61.9402 221.839 64.2843 222.999 68.2959C224.159 72.3082 221.732 76.4685 217.576 77.5891C213.421 78.7093 209.112 76.3653 207.952 72.3537C206.791 68.3419 209.219 64.1814 213.374 63.0608Z" fill="#0F56F5"/>
</svg>
