<svg width="57" height="58" viewBox="0 0 57 58" fill="none" xmlns="http://www.w3.org/2000/svg">
<path d="M25.667 57.3333V45.575L16.4587 54.6416L12.492 50.675L25.667 37.5V31.8333H20.0003L6.82533 45.0083L2.85866 41.0416L11.9253 31.8333H0.166992V26.1666H11.9253L2.85866 16.9583L6.82533 12.9916L20.0003 26.1666H25.667V20.5L12.492 7.32496L16.4587 3.35829L25.667 12.425V0.666626H31.3337V12.425L40.542 3.35829L44.5087 7.32496L31.3337 20.5V26.1666H37.0003L50.1753 12.9916L54.142 16.9583L45.0753 26.1666H56.8337V31.8333H45.0753L54.142 41.0416L50.1753 45.0083L37.0003 31.8333H31.3337V37.5L44.5087 50.675L40.542 54.6416L31.3337 45.575V57.3333H25.667Z" fill="#F4B119"/>
</svg>
