<svg width="29" height="27" viewBox="0 0 29 27" fill="none" xmlns="http://www.w3.org/2000/svg">
<path d="M7.84376 21.2647C7.00391 21.2647 6.29004 20.9707 5.70215 20.3828C5.11426 19.795 4.82031 19.0811 4.82031 18.2412V7.61719H7.33985V18.2412C7.33985 18.3532 7.39584 18.4652 7.50782 18.5772C7.6198 18.6892 7.73178 18.7451 7.84376 18.7451H21.8272V21.2647H7.84376Z" fill="#1C1B1F"/>
<path d="M3.02345 26.833C2.1836 26.833 1.46973 26.5391 0.88184 25.9512C0.293948 25.3633 7.68902e-07 24.6494 7.68902e-07 23.8096V13.1855H2.51954V23.8096C2.51954 23.9216 2.57553 24.0336 2.68751 24.1455C2.79949 24.2575 2.91147 24.3135 3.02345 24.3135H17.0069V26.833H3.02345Z" fill="#70AD88"/>
<path d="M13.1602 15.1172C12.2923 15.1172 11.5645 14.8233 10.9766 14.2354C10.3887 13.6475 10.0947 12.9196 10.0947 12.0518V3.02344C10.0947 2.1836 10.3887 1.46973 10.9766 0.881838C11.5645 0.293946 12.2923 0 13.1602 0H25.5479C26.3877 0 27.1016 0.293946 27.6895 0.881838C28.2774 1.46973 28.5713 2.1836 28.5713 3.02344V12.0518C28.5713 12.9196 28.2774 13.6475 27.6895 14.2354C27.1016 14.8233 26.3877 15.1172 25.5479 15.1172H13.1602ZM13.1602 12.5977H25.5479C25.6879 12.5977 25.8071 12.5417 25.9057 12.4297C26.0031 12.3177 26.0518 12.1918 26.0518 12.0518V5.87892H12.6143V12.0518C12.6143 12.1918 12.6703 12.3177 12.7822 12.4297C12.8942 12.5417 13.0202 12.5977 13.1602 12.5977Z" fill="#235AD7"/>
</svg>
