<svg width="27" height="28" viewBox="0 0 27 28" fill="none" xmlns="http://www.w3.org/2000/svg">
<path d="M4.2373 19.1813V11.0146H6.57064V19.1813H4.2373ZM11.2373 19.1813V11.0146H13.5706V19.1813H11.2373ZM0.737305 8.68131V6.34798L12.404 0.514648L24.0706 6.34798V8.68131H0.737305ZM5.95814 6.34798H18.8498L12.404 3.13965L5.95814 6.34798ZM0.737305 23.848V21.5146H14.7956C14.8345 21.923 14.8831 22.3165 14.9415 22.6953C14.9998 23.0749 15.0873 23.4591 15.204 23.848H0.737305ZM18.2373 14.8063V11.0146H20.5706V13.6396L18.2373 14.8063ZM21.7373 27.348C20.3956 27.0174 19.2826 26.2443 18.3983 25.0286C17.5132 23.8138 17.0706 22.4674 17.0706 20.9896V18.0146L21.7373 15.6813L26.404 18.0146V20.9896C26.404 22.4674 25.9618 23.8138 25.0775 25.0286C24.1924 26.2443 23.079 27.0174 21.7373 27.348ZM20.8915 23.848L24.9456 19.823L23.7206 18.598L20.8915 21.3688L19.754 20.2313L18.529 21.4855L20.8915 23.848Z" fill="#70AD88"/>
</svg>
