<svg width="25" height="27" viewBox="0 0 25 27" fill="none" xmlns="http://www.w3.org/2000/svg">
<path d="M2.85856 24.5276C2.21154 24.5276 1.66158 24.3011 1.20867 23.8482C0.755753 23.3953 0.529297 22.8453 0.529297 22.1983V4.85823C0.529297 4.21121 0.755753 3.66125 1.20867 3.20833C1.66158 2.75542 2.21154 2.52896 2.85856 2.52896H8.58468C8.75722 1.90351 9.11825 1.38029 9.66779 0.959297C10.2182 0.539167 10.8385 0.329102 11.5286 0.329102C12.2403 0.329102 12.8714 0.539167 13.4218 0.959297C13.9713 1.38029 14.3324 1.90351 14.5049 2.52896H20.1987C20.8457 2.52896 21.3956 2.75542 21.8486 3.20833C22.3015 3.66125 22.5279 4.21121 22.5279 4.85823V11.3931H20.5869V4.85823C20.5869 4.75039 20.5493 4.65895 20.4743 4.58389C20.3984 4.50798 20.3065 4.47002 20.1987 4.47002H17.3518V7.86687H5.70544V4.47002H2.85856C2.75073 4.47002 2.65928 4.50798 2.58423 4.58389C2.50831 4.65895 2.47035 4.75039 2.47035 4.85823V22.1983C2.47035 22.3062 2.50831 22.398 2.58423 22.474C2.65928 22.549 2.75073 22.5865 2.85856 22.5865H9.39345V24.5276H2.85856ZM23.369 26.7275L19.9722 23.363C19.5193 23.6433 19.0608 23.859 18.5966 24.01C18.1334 24.1609 17.6322 24.2364 17.093 24.2364C15.6695 24.2364 14.4618 23.7348 13.4697 22.7315C12.4776 21.729 11.9815 20.5161 11.9815 19.0926C11.9815 17.6692 12.4776 16.4614 13.4697 15.4693C14.4618 14.4772 15.6695 13.9812 17.093 13.9812C18.5164 13.9812 19.7298 14.4772 20.7331 15.4693C21.7355 16.4614 22.2368 17.6692 22.2368 19.0926C22.2368 19.6534 22.1505 20.1818 21.978 20.6778C21.8054 21.1739 21.6005 21.6052 21.3633 21.9719L24.7278 25.3687L23.369 26.7275ZM17.093 22.2954C17.9988 22.2954 18.7588 21.9878 19.3731 21.3727C19.9882 20.7585 20.2957 19.9985 20.2957 19.0926C20.2957 18.2084 19.9882 17.4587 19.3731 16.8436C18.7588 16.2294 17.9988 15.9222 17.093 15.9222C16.2087 15.9222 15.459 16.2294 14.8439 16.8436C14.2297 17.4587 13.9226 18.2084 13.9226 19.0926C13.9226 19.9985 14.2297 20.7585 14.8439 21.3727C15.459 21.9878 16.2087 22.2954 17.093 22.2954ZM11.5286 4.63177C11.8521 4.63177 12.1269 4.51833 12.3529 4.29144C12.5798 4.06542 12.6932 3.77987 12.6932 3.43479C12.6932 3.11128 12.5798 2.83608 12.3529 2.60919C12.1269 2.38317 11.8521 2.27016 11.5286 2.27016C11.2051 2.27016 10.9303 2.38317 10.7043 2.60919C10.4774 2.83608 10.364 3.12206 10.364 3.46714C10.364 3.79065 10.4774 4.06542 10.7043 4.29144C10.9303 4.51833 11.2051 4.63177 11.5286 4.63177Z" fill="#0F56F5"/>
</svg>
