<svg width="27" height="28" viewBox="0 0 27 28" fill="none" xmlns="http://www.w3.org/2000/svg">
<path d="M5.83333 23.3333C4.22917 23.3333 2.8559 22.7622 1.71354 21.6198C0.571181 20.4774 0 19.1042 0 17.5C0 15.8958 0.571181 14.5226 1.71354 13.3802C2.8559 12.2378 4.22917 11.6667 5.83333 11.6667C7.4375 11.6667 8.81076 12.2378 9.95312 13.3802C11.0955 14.5226 11.6667 15.8958 11.6667 17.5C11.6667 19.1042 11.0955 20.4774 9.95312 21.6198C8.81076 22.7622 7.4375 23.3333 5.83333 23.3333ZM5.83333 20.4167C6.63542 20.4167 7.32181 20.1308 7.8925 19.5592C8.46417 18.9885 8.75 18.3021 8.75 17.5C8.75 16.6979 8.46417 16.011 7.8925 15.4394C7.32181 14.8687 6.63542 14.5833 5.83333 14.5833C5.03125 14.5833 4.34486 14.8687 3.77417 15.4394C3.2025 16.011 2.91667 16.6979 2.91667 17.5C2.91667 18.3021 3.2025 18.9885 3.77417 19.5592C4.34486 20.1308 5.03125 20.4167 5.83333 20.4167ZM11.6667 8.75C12.4688 8.75 13.1556 8.46417 13.7273 7.8925C14.298 7.32181 14.5833 6.63542 14.5833 5.83333C14.5833 5.03125 14.298 4.34486 13.7273 3.77417C13.1556 3.2025 12.4688 2.91667 11.6667 2.91667C10.8646 2.91667 10.1782 3.2025 9.6075 3.77417C9.03583 4.34486 8.75 5.03125 8.75 5.83333C8.75 6.63542 9.03583 7.32181 9.6075 7.8925C10.1782 8.46417 10.8646 8.75 11.6667 8.75ZM11.6667 11.6667C10.0625 11.6667 8.68924 11.0955 7.54688 9.95312C6.40451 8.81076 5.83333 7.4375 5.83333 5.83333C5.83333 4.22917 6.40451 2.8559 7.54688 1.71354C8.68924 0.57118 10.0625 0 11.6667 0C13.2708 0 14.6441 0.57118 15.7865 1.71354C16.9288 2.8559 17.5 4.22917 17.5 5.83333C17.5 7.4375 16.9288 8.81076 15.7865 9.95312C14.6441 11.0955 13.2708 11.6667 11.6667 11.6667ZM20.4167 24.7917C21.2188 24.7917 21.9056 24.5063 22.4773 23.9356C23.048 23.364 23.3333 22.6771 23.3333 21.875C23.3333 21.0729 23.048 20.3865 22.4773 19.8158C21.9056 19.2442 21.2188 18.9583 20.4167 18.9583C19.6146 18.9583 18.9282 19.2442 18.3575 19.8158C17.7858 20.3865 17.5 21.0729 17.5 21.875C17.5 22.6771 17.7858 23.364 18.3575 23.9356C18.9282 24.5063 19.6146 24.7917 20.4167 24.7917ZM20.4167 27.7083C18.8125 27.7083 17.4392 27.1372 16.2969 25.9948C15.1545 24.8524 14.5833 23.4792 14.5833 21.875C14.5833 20.2708 15.1545 18.8976 16.2969 17.7552C17.4392 16.6128 18.8125 16.0417 20.4167 16.0417C22.0208 16.0417 23.3941 16.6128 24.5365 17.7552C25.6788 18.8976 26.25 20.2708 26.25 21.875C26.25 23.4792 25.6788 24.8524 24.5365 25.9948C23.3941 27.1372 22.0208 27.7083 20.4167 27.7083Z" fill="#F83D3D"/>
</svg>
