<svg width="341" height="341" viewBox="0 0 341 341" fill="none" xmlns="http://www.w3.org/2000/svg">
<g opacity="0.227358">
<path d="M338.75 170.5C338.75 263.56 263.309 339 170.249 339C77.1897 339 1.75 263.56 1.75 170.5C1.75 77.4397 77.1897 2 170.249 2C263.309 2 338.75 77.4397 338.75 170.5Z" stroke="url(#paint0_linear_35_5486)" stroke-width="3.08371" stroke-miterlimit="10" stroke-linecap="round"/>
</g>
<g opacity="0.30937">
<path d="M313.595 170.5C313.595 249.668 249.416 313.845 170.249 313.845C91.0825 313.845 26.9052 249.668 26.9052 170.5C26.9052 91.3327 91.0825 27.1553 170.249 27.1553C249.416 27.1553 313.595 91.3327 313.595 170.5Z" stroke="url(#paint1_linear_35_5486)" stroke-width="2.62335" stroke-miterlimit="10" stroke-linecap="round"/>
</g>
<g opacity="0.384371">
<path d="M290.589 170.501C290.589 236.962 236.711 290.84 170.249 290.84C103.788 290.84 49.9105 236.962 49.9105 170.501C49.9105 104.039 103.788 50.1611 170.249 50.1611C236.711 50.1611 290.589 104.039 290.589 170.501Z" stroke="url(#paint2_linear_35_5486)" stroke-width="2.20233" stroke-miterlimit="10" stroke-linecap="round"/>
</g>
<g opacity="0.27047">
<path d="M267.584 170.499C267.584 224.256 224.006 267.833 170.249 267.833C116.494 267.833 72.9161 224.256 72.9161 170.499C72.9161 116.743 116.494 73.1655 170.249 73.1655C224.006 73.1655 267.584 116.743 267.584 170.499Z" stroke="url(#paint3_linear_35_5486)" stroke-width="1.7813" stroke-miterlimit="10" stroke-linecap="round"/>
</g>
<path d="M158.505 200.771C171.46 190.634 191.224 175.168 204.179 165.03" stroke="url(#paint4_linear_35_5486)" stroke-width="6"/>
<path d="M149.493 143.063C164.954 149.261 188.543 158.718 204.004 164.916" stroke="url(#paint5_linear_35_5486)" stroke-width="6"/>
<path d="M158.35 202.24C155.936 185.915 152.253 161.009 149.838 144.684" stroke="url(#paint6_linear_35_5486)" stroke-width="6"/>
<path d="M148.434 208.131C144.179 202.693 145.139 194.824 150.576 190.569C156.013 186.315 163.882 187.275 168.137 192.712C172.392 198.149 171.432 206.018 165.995 210.273C160.558 214.528 152.688 213.568 148.434 208.131Z" fill="#28CCEA"/>
<path d="M139.151 151.476C134.896 146.039 135.856 138.17 141.293 133.915C146.73 129.66 154.599 130.62 158.854 136.057C163.109 141.495 162.149 149.364 156.712 153.619C151.275 157.874 143.405 156.914 139.151 151.476Z" fill="#28CCEA"/>
<path d="M193.659 173.328C189.405 167.891 190.365 160.022 195.802 155.767C201.239 151.512 209.108 152.472 213.363 157.91C217.618 163.347 216.658 171.216 211.221 175.471C205.783 179.726 197.914 178.766 193.659 173.328Z" fill="#28CCEA"/>
<defs>
<linearGradient id="paint0_linear_35_5486" x1="96.2808" y1="321.966" x2="242.583" y2="21.9392" gradientUnits="userSpaceOnUse">
<stop stop-color="#67ACFD"/>
<stop offset="0.5" stop-color="#34C6ED"/>
<stop offset="1" stop-color="#01E0DE"/>
</linearGradient>
<linearGradient id="paint1_linear_35_5486" x1="107.324" y1="299.354" x2="231.784" y2="44.1177" gradientUnits="userSpaceOnUse">
<stop stop-color="#67ACFD"/>
<stop offset="0.5" stop-color="#34C6ED"/>
<stop offset="1" stop-color="#01E0DE"/>
</linearGradient>
<linearGradient id="paint2_linear_35_5486" x1="117.423" y1="278.675" x2="221.909" y2="64.4013" gradientUnits="userSpaceOnUse">
<stop stop-color="#67ACFD"/>
<stop offset="0.5" stop-color="#34C6ED"/>
<stop offset="1" stop-color="#01E0DE"/>
</linearGradient>
<linearGradient id="paint3_linear_35_5486" x1="127.522" y1="257.994" x2="212.033" y2="84.6834" gradientUnits="userSpaceOnUse">
<stop stop-color="#67ACFD"/>
<stop offset="0.5" stop-color="#34C6ED"/>
<stop offset="1" stop-color="#01E0DE"/>
</linearGradient>
<linearGradient id="paint4_linear_35_5486" x1="nan" y1="nan" x2="nan" y2="nan" gradientUnits="userSpaceOnUse">
<stop stop-color="#2BCAEB"/>
<stop offset="0.5" stop-color="#16D5E4"/>
<stop offset="1" stop-color="#01E0DE"/>
</linearGradient>
<linearGradient id="paint5_linear_35_5486" x1="167.112" y1="179.801" x2="122.213" y2="122.425" gradientUnits="userSpaceOnUse">
<stop stop-color="#2BCAEB"/>
<stop offset="0.5" stop-color="#16D5E4"/>
<stop offset="1" stop-color="#01E0DE"/>
</linearGradient>
<linearGradient id="paint6_linear_35_5486" x1="180.063" y1="171.181" x2="135.163" y2="113.804" gradientUnits="userSpaceOnUse">
<stop stop-color="#2BCAEB"/>
<stop offset="0.5" stop-color="#16D5E4"/>
<stop offset="1" stop-color="#01E0DE"/>
</linearGradient>
</defs>
</svg>
