<svg width="30" height="31" viewBox="0 0 30 31" fill="none" xmlns="http://www.w3.org/2000/svg">
<path d="M15 4.05322C11.8506 4.05322 8.8301 5.30433 6.60311 7.53133C4.37611 9.75832 3.125 12.7788 3.125 15.9282C3.125 19.0777 4.37611 22.0981 6.60311 24.3251C8.8301 26.5521 11.8506 27.8032 15 27.8032C18.1494 27.8032 21.1699 26.5521 23.3969 24.3251C25.6239 22.0981 26.875 19.0777 26.875 15.9282C26.875 12.7788 25.6239 9.75832 23.3969 7.53133C21.1699 5.30433 18.1494 4.05322 15 4.05322Z" fill="#039BE5"/>
<path d="M16.607 19.0756H19.6802L20.1627 15.9537H16.6064V14.2475C16.6064 12.9506 17.0302 11.8006 18.2433 11.8006H20.1927V9.07621C19.8502 9.02996 19.1258 8.92871 17.757 8.92871C14.8989 8.92871 13.2233 10.4381 13.2233 13.8768V15.9537H10.2852V19.0756H13.2233V27.6562C13.8052 27.7437 14.3945 27.8031 14.9995 27.8031C15.5464 27.8031 16.0802 27.7531 16.607 27.6818V19.0756Z" fill="white"/>
</svg>
