<svg width="64" height="50" viewBox="0 0 64 50" fill="none" xmlns="http://www.w3.org/2000/svg">
<path d="M9.33399 18.4988C8.53121 18.4988 7.85876 18.2268 7.31665 17.6828C6.77265 17.1407 6.50065 16.4682 6.50065 15.6655C6.50065 14.8627 6.77265 14.1893 7.31665 13.6453C7.85876 13.1032 8.53121 12.8321 9.33399 12.8321H17.834C19.3923 12.8321 20.7259 13.3865 21.8347 14.4953C22.9453 15.606 23.5007 16.9405 23.5007 18.4988H9.33399ZM15.0007 43.9988C17.3618 43.9988 19.3687 43.1724 21.0215 41.5196C22.6743 39.8669 23.5007 37.8599 23.5007 35.4988C23.5007 33.1377 22.6743 31.1307 21.0215 29.478C19.3687 27.8252 17.3618 26.9988 15.0007 26.9988C12.6395 26.9988 10.6326 27.8252 8.97982 29.478C7.32704 31.1307 6.50065 33.1377 6.50065 35.4988C6.50065 37.8599 7.32704 39.8669 8.97982 41.5196C10.6326 43.1724 12.6395 43.9988 15.0007 43.9988ZM53.2507 43.9988C54.4312 43.9988 55.4342 43.5851 56.2597 42.7578C57.087 41.9324 57.5007 40.9294 57.5007 39.7488C57.5007 38.5682 57.087 37.5652 56.2597 36.7398C55.4342 35.9125 54.4312 35.4988 53.2507 35.4988C52.0701 35.4988 51.0671 35.9125 50.2417 36.7398C49.4143 37.5652 49.0007 38.5682 49.0007 39.7488C49.0007 40.9294 49.4143 41.9324 50.2417 42.7578C51.0671 43.5851 52.0701 43.9988 53.2507 43.9988ZM15.0007 39.7488C13.8201 39.7488 12.8171 39.3351 11.9917 38.5078C11.1643 37.6824 10.7507 36.6794 10.7507 35.4988C10.7507 34.3182 11.1643 33.3152 11.9917 32.4898C12.8171 31.6625 13.8201 31.2488 15.0007 31.2488C16.1812 31.2488 17.1842 31.6625 18.0097 32.4898C18.837 33.3152 19.2507 34.3182 19.2507 35.4988C19.2507 36.6794 18.837 37.6824 18.0097 38.5078C17.1842 39.3351 16.1812 39.7488 15.0007 39.7488ZM54.6673 29.903C55.8951 30.1391 56.9104 30.4574 57.7132 30.8578C58.5159 31.2601 59.3895 31.9099 60.334 32.8071V15.6655C60.334 14.1071 59.7796 12.7736 58.6708 11.6648C57.5602 10.5541 56.2257 9.9988 54.6673 9.9988H36.8173L33.8423 6.88213L37.809 2.91546L35.8257 0.932129L25.7673 10.9905L27.8923 12.9738L31.859 9.00713L34.834 11.9821V18.4988C34.834 20.0571 34.2796 21.3907 33.1708 22.4995C32.0602 23.6101 30.7257 24.1655 29.1673 24.1655H23.4298C24.5159 24.9682 25.3895 25.7946 26.0507 26.6446C26.7118 27.4946 27.3729 28.5571 28.034 29.8321H29.1673C32.284 29.8321 34.952 28.7224 37.1715 26.503C39.3909 24.2835 40.5007 21.6155 40.5007 18.4988V15.6655H54.6673V29.903ZM43.4048 38.3321C43.6882 37.0571 44.031 36.0296 44.4333 35.2495C44.8338 34.4712 45.459 33.6099 46.309 32.6655H28.884C29.0729 33.7516 29.1673 34.696 29.1673 35.4988C29.1673 36.3016 29.0729 37.246 28.884 38.3321H43.4048ZM53.2507 49.6655C50.5118 49.6655 48.1743 48.6974 46.2382 46.7613C44.302 44.8252 43.334 42.4877 43.334 39.7488C43.334 37.0099 44.302 34.6724 46.2382 32.7363C48.1743 30.8002 50.5118 29.8321 53.2507 29.8321C55.9895 29.8321 58.327 30.8002 60.2632 32.7363C62.1993 34.6724 63.1673 37.0099 63.1673 39.7488C63.1673 42.4877 62.1993 44.8252 60.2632 46.7613C58.327 48.6974 55.9895 49.6655 53.2507 49.6655ZM15.0007 49.6655C11.0812 49.6655 7.74071 48.2847 4.97915 45.5231C2.21571 42.7597 0.833984 39.4182 0.833984 35.4988C0.833984 31.5794 2.21571 28.2379 4.97915 25.4745C7.74071 22.7129 11.0812 21.3321 15.0007 21.3321C18.9201 21.3321 22.2615 22.7129 25.025 25.4745C27.7865 28.2379 29.1673 31.5794 29.1673 35.4988C29.1673 39.4182 27.7865 42.7597 25.025 45.5231C22.2615 48.2847 18.9201 49.6655 15.0007 49.6655Z" fill="#F4B119"/>
</svg>
