<svg width="66" height="64" viewBox="0 0 66 64" fill="none" xmlns="http://www.w3.org/2000/svg">
<path d="M18.6667 63.2501V48.9168H47.3333V63.2501H18.6667ZM0.75 46.2293V29.8355C0.75 29.0591 0.899306 28.3126 1.19792 27.5959C1.49653 26.8793 1.94444 26.282 2.54167 25.8043L29.4167 1.9751C29.8944 1.49732 30.4475 1.15332 31.0758 0.943097C31.7016 0.735264 32.3431 0.631348 33 0.631348C33.6569 0.631348 34.2996 0.735264 34.9278 0.943097C35.5537 1.15332 36.1056 1.49732 36.5833 1.9751L43.75 8.33551L0.75 46.2293ZM6.125 63.2501C4.63194 63.2501 3.36344 62.7269 2.3195 61.6806C1.27317 60.6367 0.75 59.3682 0.75 57.8751V51.0668L15.0833 38.3459V63.2501H6.125ZM50.9167 63.2501V33.8668L35.5979 20.2501L46.4375 10.6647L63.4583 25.8043C64.0556 26.3418 64.5035 26.9533 64.8021 27.6389C65.1007 28.3269 65.25 29.0591 65.25 29.8355V57.8751C65.25 59.3682 64.7268 60.6367 63.6805 61.6806C62.6366 62.7269 61.3681 63.2501 59.875 63.2501H50.9167Z" fill="#F4B119"/>
</svg>
