<svg width="30" height="31" viewBox="0 0 30 31" fill="none" xmlns="http://www.w3.org/2000/svg">
<path d="M26.0437 9.35322C25.7937 9.51572 25.4375 9.66572 25.2875 9.83447C25.2312 9.89072 25.2 9.95322 25.2125 10.0157V10.6595L25.025 11.2907L24.8375 11.9157L24.6313 12.6032L24.2062 14.0095L23.7938 15.397L23.4813 16.4407C23.4813 16.6032 23.475 16.7657 23.4625 16.922C23.4188 17.522 23.2938 18.097 23.0938 18.6345C22.975 18.9657 22.8313 19.2845 22.6562 19.5845C22.5938 19.7032 22.5188 19.822 22.4438 19.9345C22.1938 20.3282 21.8938 20.6907 21.5625 21.0095C21.3063 21.2657 21.025 21.5032 20.7188 21.7032C20.7188 21.7032 20.7188 21.7032 20.7125 21.7032C20.6625 21.747 20.6062 21.7845 20.5437 21.8157C20.35 21.947 20.1438 22.0595 19.9312 22.1595C19.7875 22.2345 19.6438 22.297 19.4938 22.3532C19.4625 22.372 19.425 22.3845 19.3938 22.397C19.0375 22.5657 18.625 22.6782 18.2125 22.7345C18.1875 22.7407 18.1688 22.7407 18.1438 22.747C17.8938 22.7907 17.65 22.8282 17.4 22.847C17.2875 22.8595 17.1688 22.8657 17.0563 22.8657L16.6125 22.8407L14.475 22.7282C14.475 22.722 14.4688 22.7282 14.4688 22.7282L13.3938 22.672C13.3125 22.672 13.225 22.672 13.1438 22.6657C12.8063 22.6532 12.4813 22.6157 12.1563 22.547C12.15 22.547 12.15 22.547 12.15 22.547C11.5563 22.4345 10.9875 22.2345 10.4562 21.9657C10.1625 21.8157 9.875 21.647 9.60625 21.4532C9.49375 21.372 9.3875 21.2845 9.28125 21.1907C8.98125 20.9407 8.7125 20.672 8.4625 20.397C8.425 20.3595 8.39375 20.322 8.3625 20.2845C8.325 20.247 8.2875 20.2032 8.25625 20.1657C8.01875 19.8657 7.81875 19.5595 7.65625 19.2345C7.50625 18.947 7.3875 18.6407 7.29375 18.3032C7.25625 18.1845 7.225 18.072 7.2 17.947C7.19375 17.9407 7.1875 17.9282 7.1875 17.9157C7.125 17.6595 7.06875 17.3907 7.0375 17.122C7 16.9157 6.98125 16.7095 6.98125 16.497C6.96875 16.4157 6.96875 16.3282 6.96875 16.247L8.1625 14.4032L9.33125 12.6032L9.8625 11.7845L10.3437 11.047L10.5062 10.7907V10.147C10.5187 10.0032 10.525 9.85322 10.5188 9.71572C10.5125 9.27822 10.425 8.85322 10.2813 8.44697C10.1438 8.01572 9.95 7.60947 9.75 7.23447C9.5125 6.80322 9.2625 6.41572 9.05625 6.06572C8.75 5.55322 8.5375 5.13447 8.59375 4.84072C9.04375 4.73447 9.51875 4.67822 10 4.67822H20C22.6125 4.67822 24.8625 6.30322 25.7938 8.59072C25.8938 8.83447 25.9812 9.09072 26.0437 9.35322Z" fill="#304FFE"/>
<path d="M26.2502 10.9282V11.097L25.3877 11.597L24.8377 11.9157L24.2314 12.2657L23.0189 12.972L21.8314 13.6595L20.6189 14.3595L20.1377 14.6407C20.1377 14.9407 20.0627 15.2157 19.9252 15.4657C19.7314 15.8282 19.4064 16.1282 18.9939 16.3845C18.5752 16.6407 18.0627 16.847 17.4877 16.997C17.4877 16.997 17.4877 16.9907 17.4814 16.997C15.2564 17.572 12.2189 17.3095 10.7439 16.2095C10.3314 15.9032 10.0439 15.5282 9.91894 15.097C9.88144 14.9532 9.86269 14.797 9.86269 14.6407V10.147C9.86894 10.0532 9.80645 9.95947 9.69394 9.86572C9.35644 9.59697 8.5627 9.34072 7.67519 9.08447C6.98145 8.89072 6.23769 8.69697 5.61269 8.50947C5.11895 8.35947 4.7002 8.20947 4.4502 8.06572C4.5627 7.84697 4.69395 7.62822 4.83145 7.42197C5.70645 6.14072 7.04395 5.19697 8.59395 4.84072C9.04394 4.73447 9.51894 4.67822 10.0002 4.67822H16.7502C20.1064 5.26572 23.2002 6.63447 25.7939 8.59072C25.8939 8.83447 25.9814 9.09072 26.0439 9.35322C26.1564 9.76572 26.2252 10.1907 26.2439 10.6345C26.2502 10.7282 26.2502 10.8282 26.2502 10.9282Z" fill="#4928F4"/>
<path d="M26.2502 10.9283V13.6846L26.1127 14.1096L25.6439 15.5658L25.1564 17.0658L24.9002 17.8658L24.6627 18.6096L24.4314 19.3158L24.2064 20.0158L24.0877 20.3846L23.9314 20.8721C23.9314 21.3471 23.9189 21.7658 23.8877 22.1221C23.8814 22.1596 23.8752 22.1971 23.8752 22.2346C23.8377 22.5658 23.7877 22.8471 23.7064 23.0846C23.7002 23.1221 23.6877 23.1596 23.6752 23.1908C23.5127 23.6408 23.2689 23.9283 22.9064 24.1158C22.8189 24.1658 22.7189 24.2033 22.6127 24.2408C22.2814 24.3533 21.8627 24.4096 21.3502 24.4408C20.9752 24.4658 20.5439 24.4721 20.0564 24.4721H19.6252L18.8814 24.4408L18.7502 24.4346L17.3939 24.3783L16.0189 24.3221L11.4877 24.1346L10.3127 24.0846H10.1502C9.66269 24.0783 9.24395 24.0471 8.88145 23.9971C8.35645 23.9158 7.95019 23.7783 7.64394 23.5721C7.20644 23.2908 6.9502 22.8783 6.8002 22.3033C6.7627 22.1658 6.73145 22.0221 6.7127 21.8658C6.6502 21.5033 6.61895 21.0846 6.6002 20.6158C6.6002 20.5221 6.6002 20.4283 6.59395 20.3283C6.5877 20.3221 6.59395 20.3221 6.59395 20.3221V19.9596C6.5877 19.7783 6.5877 19.5908 6.5877 19.3971L6.61895 18.3908L6.6377 17.6721L6.6627 16.8346V16.7158L6.70644 15.1783L6.7502 13.6408L6.79395 12.1971L6.83145 10.7783L6.84395 10.4033C6.84395 10.2096 6.1877 10.0971 5.45644 10.0033C4.8752 9.92832 4.2377 9.85957 3.85645 9.77207C3.8877 9.62832 3.91895 9.48457 3.95645 9.34707C4.06895 8.89707 4.2377 8.47207 4.4502 8.06582C4.5627 7.84707 4.69395 7.62832 4.83145 7.42207C6.18145 6.82832 7.5877 6.36582 9.05645 6.06582C10.3439 5.79707 11.6877 5.65332 13.0752 5.65332C17.6752 5.65332 21.9252 7.20957 25.2877 9.83457C25.6127 10.0846 25.9314 10.3533 26.2439 10.6346C26.2502 10.7283 26.2502 10.8283 26.2502 10.9283Z" fill="#6200EA"/>
<path d="M26.25 12.4096V15.2471L25.9062 15.9096L25.25 17.1908L24.9 17.8658L24.5813 18.4846L24.4438 18.7533C24.4438 18.9471 24.4438 19.1346 24.4312 19.3158C24.4312 19.5846 24.4188 19.8408 24.4 20.0783C24.375 20.3596 24.3375 20.6158 24.3 20.8533C24.2063 21.3471 24.075 21.7721 23.8875 22.1221C23.8625 22.1658 23.8375 22.2096 23.8125 22.2471C23.7437 22.3596 23.6625 22.4658 23.575 22.5658C23.4625 22.7033 23.3375 22.8221 23.1938 22.9221C22.9813 23.0846 22.7313 23.2158 22.4438 23.3158C22.0875 23.4471 21.675 23.5346 21.1875 23.5846C20.8688 23.6158 20.5188 23.6346 20.1375 23.6346L19.875 23.6471L18.575 23.7221H18.5687L17.1875 23.8033L15.7812 23.8846L13.8438 23.9971L11.4875 24.1346L11.1438 24.1533C10.825 24.1533 10.525 24.1346 10.2375 24.0971C10.2062 24.0908 10.1813 24.0846 10.15 24.0846C9.725 24.0158 9.3375 23.9033 8.9875 23.7471C8.5625 23.5596 8.19375 23.3096 7.88125 23.0096C7.60625 22.7408 7.36875 22.4346 7.175 22.0908C7.13125 22.0096 7.0875 21.9346 7.05 21.8471C6.8625 21.4783 6.7125 21.0658 6.6 20.6158C6.58125 20.5408 6.5625 20.4596 6.55 20.3783C6.5125 20.2346 6.48125 20.0846 6.4625 19.9283C6.39375 19.5283 6.35625 19.1033 6.3375 18.6596V18.6533C6.33125 18.4721 6.325 18.2971 6.325 18.1096L6.01875 17.3783L5.975 17.2658L5.9375 17.1721L5.46875 16.0533L5.39375 15.8721L4.94375 14.7908L4.44375 13.5846C4.44375 13.5846 4.44375 13.5846 4.4375 13.5846L3.93125 12.3658L3.75 11.9221V10.9283C3.75 10.5346 3.7875 10.1471 3.85625 9.77207C3.8875 9.62832 3.91875 9.48457 3.95625 9.34707C4.4875 9.04082 5.04375 8.75957 5.6125 8.50957C6.9125 7.92832 8.30625 7.49707 9.75 7.23457C10.825 7.04082 11.9438 6.93457 13.075 6.93457C17.6438 6.93457 21.7875 8.59082 25.025 11.2908C25.15 11.3908 25.2687 11.4908 25.3875 11.5971C25.6812 11.8533 25.9688 12.1221 26.25 12.4096Z" fill="#673AB7"/>
<path d="M26.25 14.2722V17.4847L25.8937 18.2284L25.2188 19.6347L25.2125 19.6534C25.2125 19.9222 25.2 20.1659 25.1813 20.3847C25.1187 21.1034 24.9438 21.5597 24.6562 21.8409C24.45 22.0534 24.1938 22.1722 23.875 22.2347C23.8563 22.2409 23.8312 22.2409 23.8125 22.2472C23.7125 22.2659 23.6063 22.2784 23.4937 22.2784C23.1063 22.3159 22.65 22.2909 22.125 22.2534C22.0688 22.2534 22.0063 22.2472 21.9438 22.2409C21.5625 22.2159 21.1562 22.1909 20.7063 22.1722C20.4625 22.1659 20.2062 22.1597 19.9438 22.1597H19.9312L19.3 22.2097H19.2938L17.875 22.3097L16.2563 22.4347L16.0187 22.4534L14.125 22.5909L13.1438 22.6659L12.175 22.7347C12.0062 22.7347 11.8438 22.7347 11.6813 22.7284C11.6813 22.7284 11.675 22.7222 11.675 22.7284C10.9688 22.7159 10.3375 22.6722 9.775 22.5659C9.25625 22.4784 8.8 22.3409 8.4125 22.1347C8.0125 21.9409 7.68125 21.6659 7.4125 21.3159C7.15625 20.9722 6.96875 20.5409 6.85 20.0222C6.85 20.0159 6.85 20.0159 6.85 20.0159C6.7625 19.5972 6.7125 19.1097 6.7125 18.5597L6.61875 18.3909L6.0625 17.3972L5.98125 17.2597L5.9375 17.1722L5.35625 16.1409L5.06875 15.6222L4.70625 14.9784L4.08125 13.8597L3.75 13.2722V10.9722C4.3 10.6097 4.86875 10.2909 5.45625 10.0034C6.16875 9.64092 6.90625 9.33467 7.675 9.08467C8.5125 8.80967 9.3875 8.59092 10.2813 8.44717C11.1875 8.29717 12.1187 8.22217 13.075 8.22217C17.325 8.22217 21.225 9.74092 24.2313 12.2659C24.3687 12.3722 24.5 12.4909 24.6313 12.6034C25.1562 13.0722 25.6562 13.5784 26.1125 14.1097C26.1625 14.1659 26.2125 14.2159 26.25 14.2722Z" fill="#8E24AA"/>
<path d="M26.25 16.3722V20.8909C26.1 20.8034 25.8938 20.6972 25.6375 20.5847C25.5 20.5159 25.3438 20.4472 25.1813 20.3847C24.9438 20.2784 24.6875 20.1784 24.4 20.0784C24.3375 20.0534 24.275 20.0347 24.2062 20.0159C24.0938 19.9722 23.975 19.9347 23.8562 19.8972C23.4875 19.7847 23.0812 19.6784 22.6562 19.5847C22.4937 19.5534 22.325 19.5222 22.1562 19.4972C21.6125 19.4034 21.0312 19.3472 20.425 19.3409C20.375 19.3347 20.3188 19.3347 20.2687 19.3347L18.6625 19.3472L16.475 19.3597H16.4688L11.7875 19.3972C10.3 19.3972 9.3875 19.7534 8.8375 19.8972C8.8375 19.8972 8.83125 19.8972 8.83125 19.9034C8.25 20.0534 8.06875 19.9597 8.01875 18.9409C8.00625 18.6597 8 18.2972 8 17.8534L7.65 17.5847L7.0375 17.1222L6.6625 16.8347L6.5875 16.7784L5.55 15.9909L5.39375 15.8722L5.06875 15.6222L4.46875 15.1722L3.75 14.6222V12.4972C3.8125 12.4472 3.86875 12.4034 3.93125 12.3659C4.8375 11.7409 5.80625 11.2097 6.83125 10.7784C7.74375 10.3909 8.70625 10.0847 9.69375 9.86592C9.9625 9.80967 10.2375 9.75342 10.5188 9.71592C11.35 9.57217 12.2063 9.50342 13.075 9.50342C16.8313 9.50342 20.2813 10.8097 23.0188 12.9722C23.4313 13.2972 23.8312 13.6409 24.2062 14.0097C24.7188 14.4972 25.2 15.0159 25.6437 15.5659C25.7312 15.6784 25.8188 15.7909 25.9062 15.9097C26.025 16.0597 26.1375 16.2159 26.25 16.3722Z" fill="#C2185B"/>
<path d="M26.25 18.878V20.928C26.25 21.3343 26.2125 21.7343 26.1375 22.1218C26.025 22.6968 25.8312 23.2468 25.5688 23.7593C25.4312 23.7905 25.275 23.7905 25.1 23.7655C24.7062 23.6968 24.2438 23.4905 23.7438 23.2218C23.7188 23.2155 23.6938 23.203 23.675 23.1905C23.5188 23.1093 23.3563 23.0218 23.1938 22.9218C22.8625 22.7405 22.5125 22.5405 22.1625 22.353C22.0875 22.3155 22.0125 22.278 21.9438 22.2405C21.5438 22.0343 21.1313 21.8468 20.7188 21.703C20.7188 21.703 20.7188 21.703 20.7125 21.703C20.625 21.6718 20.5312 21.6405 20.4375 21.6155C20.0813 21.5155 19.7188 21.453 19.3687 21.453L18.6812 21.253L15.6375 20.3718C15.6375 20.3718 15.6375 20.3718 15.6313 20.3718L13.7625 19.828H13.7563L12.9437 19.5905C10.5937 19.5905 9.15 20.5905 8.45 20.2093C8.175 20.0655 8.0125 19.703 7.95625 18.9905C7.9375 18.7905 7.93125 18.5655 7.93125 18.303L7.2 17.9468L7.16875 17.9343H7.1625L6.6375 17.6718L6.0625 17.3968L6.01875 17.378L5.9125 17.3218L4.6875 16.728L3.75 16.2718V14.128C3.85625 14.0343 3.96875 13.9468 4.08125 13.8593C4.2 13.7655 4.31875 13.678 4.4375 13.5843C4.44375 13.5843 4.44375 13.5843 4.44375 13.5843C5.18125 13.053 5.9625 12.5843 6.79375 12.1968C7.7625 11.7343 8.79375 11.378 9.8625 11.1468C10.0187 11.1093 10.1812 11.0718 10.3437 11.0468C11.2312 10.878 12.1438 10.7905 13.075 10.7905C16.3687 10.7905 19.3938 11.8593 21.8312 13.6593C22.5375 14.1843 23.1938 14.7655 23.7938 15.3968C24.2875 15.9155 24.7437 16.478 25.1562 17.0655C25.1875 17.1093 25.2188 17.153 25.25 17.1905C25.4813 17.528 25.6938 17.8718 25.8937 18.228C26.025 18.4405 26.1375 18.6593 26.25 18.878Z" fill="#D81B60"/>
<path d="M26.1375 22.1218C26.025 22.6968 25.8312 23.2468 25.5688 23.7593C25.45 23.9905 25.3187 24.2093 25.175 24.4218C25.0875 24.553 24.9937 24.678 24.9 24.7968C24.675 24.7093 24.3438 24.5843 23.9375 24.4468C23.9375 24.4468 23.9375 24.4468 23.9375 24.4405C23.6313 24.3343 23.2813 24.2218 22.9062 24.1155C22.8 24.0843 22.6938 24.053 22.5813 24.0218C22.1375 23.903 21.675 23.7968 21.225 23.7343C20.85 23.6718 20.4813 23.6343 20.1375 23.6343L19.85 23.553H19.8438L18.3313 23.1155L17.4 22.8468L16.3625 22.5468H16.3562L16.0187 22.453L11.9375 21.278L10.7625 20.9405L9.8875 20.7343L8.4625 20.3968L8.2875 20.353C8.2875 20.353 8.2875 20.353 8.28125 20.353L6.85 20.0218C6.85 20.0155 6.85 20.0155 6.85 20.0155L6.59375 19.9593L6.4625 19.928L5.41875 19.6843L5.3 19.653L4.4125 18.9218L3.75 18.3655V15.8155C3.98125 15.5905 4.21875 15.378 4.46875 15.1718C4.54375 15.103 4.625 15.0405 4.70625 14.978C4.78125 14.9155 4.8625 14.853 4.94375 14.7905C5.5125 14.3593 6.1125 13.9718 6.75 13.6405C7.5625 13.203 8.425 12.853 9.33125 12.603C9.50625 12.5468 9.68125 12.4968 9.8625 12.4593C10.8875 12.203 11.9625 12.0718 13.075 12.0718C15.8687 12.0718 18.4688 12.9155 20.6188 14.3593C21.6875 15.078 22.65 15.9405 23.4625 16.9218C23.875 17.4155 24.25 17.9343 24.5813 18.4843C24.6125 18.528 24.6375 18.5655 24.6625 18.6093C24.8625 18.9405 25.05 19.2843 25.2188 19.6343C25.375 19.9468 25.5125 20.2593 25.6375 20.5843C25.8375 21.0843 26 21.5968 26.1375 22.1218Z" fill="#F50057"/>
<path d="M25.175 24.4219C25.0875 24.5531 24.9937 24.6781 24.9 24.7969C24.625 25.1406 24.325 25.4531 23.9875 25.7281C23.6938 25.9719 23.3813 26.1906 23.05 26.3781C22.925 26.3469 22.8 26.3094 22.6688 26.2594C22.2563 26.1156 21.825 25.8781 21.425 25.6281C20.825 25.2469 20.3062 24.8344 20.075 24.6469C19.9875 24.5719 19.9438 24.5344 19.9438 24.5344L18.8812 24.4406L18.75 24.4281L17.375 24.3094L15.95 24.1844L13.8438 23.9969L10.5062 23.7031L10.4938 23.6969L9.31875 23.1281L8.13125 22.5531L7.175 22.0906L6.96875 21.9906L6.7125 21.8656L5.825 21.4344L4.64375 20.8656L4.275 20.6844L3.75 20.5219V17.7281C4.04375 17.3781 4.35625 17.0469 4.6875 16.7281C4.9 16.5281 5.125 16.3281 5.35625 16.1406C5.39375 16.1094 5.43125 16.0781 5.46875 16.0531C5.49375 16.0219 5.525 16.0031 5.55 15.9906C5.91875 15.6906 6.30625 15.4219 6.70625 15.1781C7.16875 14.8844 7.65625 14.6219 8.1625 14.4031C8.70625 14.1594 9.275 13.9531 9.8625 13.7969C10.8812 13.5094 11.9625 13.3594 13.075 13.3594C15.625 13.3594 17.9812 14.1344 19.925 15.4656C21.1687 16.3156 22.2437 17.3906 23.0938 18.6344C23.375 19.0344 23.625 19.4594 23.8562 19.8969C23.9375 20.0594 24.0188 20.2219 24.0875 20.3844C24.1625 20.5406 24.2313 20.6969 24.3 20.8531C24.4313 21.1781 24.55 21.5031 24.6562 21.8406C24.8563 22.4656 25.0063 23.1031 25.1 23.7656C25.1313 23.9844 25.1562 24.2031 25.175 24.4219Z" fill="#FF1744"/>
<path d="M23.9937 25.5656C23.9937 25.6156 23.9938 25.6719 23.9875 25.7281C23.6938 25.9719 23.3813 26.1906 23.05 26.3781C22.9125 26.4531 22.775 26.5281 22.6312 26.5906C22.4875 26.6594 22.3437 26.7219 22.1937 26.7781C21.9812 26.6656 21.6938 26.5281 21.3875 26.3969C20.9563 26.2031 20.4875 26.0281 20.125 25.9719C20.0375 25.9531 19.9562 25.9469 19.8813 25.9469L18.8562 25.8156H18.8438L17.5688 25.6469L16.2812 25.4781L15.6812 25.4031L10.9563 24.7906C10.65 24.7906 10.325 24.7719 9.9875 24.7281C9.575 24.6906 9.14375 24.6281 8.7125 24.5406C8.2875 24.4656 7.85625 24.3656 7.44375 24.2594C7.0125 24.1594 6.5875 24.0406 6.19375 23.9281C5.7375 23.7906 5.3125 23.6594 4.95625 23.5406C4.6625 23.4469 4.4125 23.3594 4.21875 23.2906C4.10625 23.0219 4.0125 22.7406 3.94375 22.4531C3.8125 21.9656 3.75 21.4531 3.75 20.9281V19.8844C3.95 19.5531 4.16875 19.2281 4.4125 18.9219C4.85625 18.3344 5.3625 17.7969 5.9125 17.3219C5.93125 17.2969 5.95625 17.2781 5.975 17.2656L5.98125 17.2594C6.175 17.0844 6.375 16.9281 6.5875 16.7781C6.6125 16.7531 6.6375 16.7344 6.6625 16.7156C6.7625 16.6406 6.86875 16.5656 6.98125 16.4969C7.875 15.8906 8.8625 15.4156 9.91875 15.0969C10.9187 14.7969 11.975 14.6406 13.075 14.6406C15.2563 14.6406 17.2937 15.2844 18.9937 16.3844C20.25 17.1906 21.3313 18.2531 22.1562 19.4969C22.2563 19.6406 22.35 19.7844 22.4438 19.9344C22.875 20.6656 23.2313 21.4531 23.4937 22.2781C23.525 22.3719 23.55 22.4656 23.575 22.5656C23.625 22.7344 23.6688 22.9094 23.7062 23.0844C23.7188 23.1281 23.7313 23.1719 23.7438 23.2219C23.8313 23.6156 23.8937 24.0281 23.9375 24.4406C23.9375 24.4469 23.9375 24.4469 23.9375 24.4469C23.975 24.8156 23.9937 25.1906 23.9937 25.5656Z" fill="#FF5722"/>
<path d="M22.7059 25.5657C22.7059 25.7845 22.6934 26.022 22.6684 26.2595C22.6559 26.372 22.6434 26.4845 22.6309 26.5907C22.4871 26.6595 22.3434 26.722 22.1934 26.7782C21.9121 26.8845 21.6246 26.972 21.3309 27.0345C21.1309 27.0782 20.9246 27.1157 20.7184 27.1345H20.7121C20.5184 27.0157 20.2934 26.872 20.0621 26.7095C19.6434 26.4157 19.2059 26.0845 18.8559 25.8157C18.8496 25.8095 18.8496 25.8095 18.8434 25.8032C18.4746 25.522 18.2121 25.3095 18.2121 25.3095L17.5496 25.3345L16.2746 25.3782L15.6809 25.4032L13.2934 25.4907L11.2746 25.5657C11.1434 25.572 10.9871 25.572 10.7934 25.5657H10.7871C10.5246 25.5595 10.2121 25.5407 9.86836 25.5095C9.46836 25.4782 9.03086 25.4407 8.58711 25.397C8.15586 25.347 7.71836 25.297 7.29961 25.247C6.83711 25.197 6.39961 25.1407 6.02461 25.0907C5.73086 25.0532 5.47461 25.022 5.26836 24.997C5.09336 24.797 4.93711 24.5907 4.78711 24.3657C4.56211 24.0282 4.36836 23.672 4.21836 23.2907C4.10586 23.022 4.01211 22.7407 3.94336 22.4532C4.12461 21.897 4.36211 21.372 4.64336 20.8657C4.86836 20.4532 5.13086 20.0595 5.41836 19.6845C5.69961 19.3157 6.00586 18.972 6.33711 18.6595V18.6532C6.43086 18.5595 6.52461 18.472 6.61836 18.3907C6.79336 18.2282 6.97461 18.0782 7.16211 17.9345H7.16836C7.17461 17.922 7.18086 17.922 7.18711 17.9157C7.33711 17.797 7.49336 17.6907 7.64961 17.5845C8.57461 16.9532 9.61836 16.4845 10.7434 16.2095C11.4871 16.0282 12.2684 15.9282 13.0746 15.9282C14.6621 15.9282 16.1621 16.3095 17.4809 16.997H17.4871C18.6184 17.5782 19.6184 18.3782 20.4246 19.3407C20.8684 19.8532 21.2496 20.4157 21.5621 21.0095C21.7809 21.4095 21.9684 21.8282 22.1246 22.2532C22.1371 22.2907 22.1496 22.322 22.1621 22.3532C22.2684 22.6657 22.3621 22.9907 22.4434 23.3157C22.4996 23.547 22.5434 23.7845 22.5809 24.022C22.5934 24.097 22.6059 24.1657 22.6121 24.2407C22.6746 24.672 22.7059 25.1157 22.7059 25.5657Z" fill="#FF6F00"/>
<path d="M21.4246 25.5658V25.6283C21.4246 25.8408 21.4059 26.1096 21.3871 26.3971C21.3684 26.6096 21.3496 26.8283 21.3309 27.0346C21.1309 27.0783 20.9246 27.1158 20.7184 27.1346H20.7121C20.4746 27.1658 20.2434 27.1783 19.9996 27.1783H18.9059L18.6684 27.1096L17.4371 26.7346L16.1871 26.3596L13.2934 25.4908L12.0434 25.1158C12.0434 25.1158 11.5246 25.3221 10.7934 25.5658H10.7871C10.5059 25.6596 10.1996 25.7596 9.87461 25.8596C9.46836 25.9783 9.03711 26.0971 8.61211 26.1908C8.17461 26.2908 7.74336 26.3658 7.35586 26.3971C7.23711 26.4096 7.11836 26.4158 7.01211 26.4158C6.66211 26.2221 6.32461 25.9908 6.01836 25.7346C5.74961 25.5096 5.49961 25.2658 5.26836 24.9971C5.09336 24.7971 4.93711 24.5908 4.78711 24.3658C4.83086 24.0846 4.88086 23.8096 4.95586 23.5408C5.14336 22.7971 5.43711 22.0846 5.82461 21.4346C6.03711 21.0658 6.27461 20.7096 6.54961 20.3783C6.55586 20.3596 6.57461 20.3408 6.59336 20.3283C6.58711 20.3221 6.59336 20.3221 6.59336 20.3221C6.67461 20.2158 6.76211 20.1158 6.84961 20.0221C6.84961 20.0158 6.84961 20.0158 6.84961 20.0158C7.10586 19.7408 7.36836 19.4783 7.65586 19.2346C7.75586 19.1533 7.84961 19.0721 7.95586 18.9908C7.97461 18.9721 7.99336 18.9596 8.01836 18.9408C9.42461 17.8658 11.1809 17.2158 13.0746 17.2158C15.2246 17.2158 17.1809 18.0221 18.6621 19.3471C19.3746 19.9908 19.9809 20.7596 20.4371 21.6158C20.4746 21.6783 20.5121 21.7471 20.5434 21.8158C20.5996 21.9283 20.6559 22.0471 20.7059 22.1721C20.9121 22.6221 21.0746 23.0971 21.1871 23.5846C21.1996 23.6346 21.2121 23.6846 21.2246 23.7346C21.2746 23.9658 21.3184 24.2033 21.3496 24.4408C21.3996 24.8096 21.4246 25.1846 21.4246 25.5658Z" fill="#FF9800"/>
<path d="M20.1371 25.5658C20.1371 25.6908 20.1309 25.8283 20.1246 25.9721C20.1121 26.2033 20.0934 26.4533 20.0621 26.7096C20.0496 26.8658 20.0246 27.0221 19.9996 27.1783H16.5746L15.9121 27.0721L13.3246 26.6596L12.9559 26.6033L12.1121 26.4658C11.7434 26.4658 10.9434 26.6283 10.0996 26.7846C9.65586 26.8658 9.20586 26.9533 8.79961 27.0096C8.74961 27.0158 8.69961 27.0221 8.65586 27.0283H8.64961C8.21211 26.9346 7.78711 26.7908 7.38711 26.6033C7.26211 26.5471 7.13711 26.4846 7.01211 26.4158C6.66211 26.2221 6.32461 25.9908 6.01836 25.7346C6.01211 25.6596 6.00586 25.5971 6.00586 25.5658C6.00586 25.4033 6.01211 25.2471 6.02461 25.0908C6.04961 24.6908 6.10586 24.3033 6.19336 23.9283C6.33086 23.3596 6.53086 22.8096 6.79961 22.3033C6.84961 22.1971 6.90586 22.0908 6.96836 21.9908C6.99336 21.9408 7.02461 21.8971 7.04961 21.8471C7.16211 21.6658 7.28711 21.4908 7.41211 21.3158C7.67461 20.9721 7.96836 20.6471 8.28086 20.3533C8.28711 20.3533 8.28711 20.3533 8.28711 20.3533C8.31211 20.3283 8.33711 20.3033 8.36211 20.2846C8.39336 20.2596 8.41836 20.2283 8.44961 20.2096C8.57461 20.0971 8.69961 19.9971 8.83086 19.9033C8.83086 19.8971 8.83711 19.8971 8.83711 19.8971C10.0184 19.0158 11.4809 18.4971 13.0746 18.4971C14.3121 18.4971 15.4621 18.8096 16.4684 19.3596H16.4746C17.3371 19.8346 18.0871 20.4783 18.6809 21.2533C18.9121 21.5533 19.1184 21.8721 19.2934 22.2096H19.2996C19.3309 22.2721 19.3621 22.3346 19.3934 22.3971C19.5809 22.7658 19.7309 23.1533 19.8434 23.5533H19.8496C19.8559 23.5846 19.8684 23.6158 19.8746 23.6471C19.9496 23.9158 20.0121 24.1908 20.0559 24.4721C20.0621 24.5283 20.0684 24.5908 20.0746 24.6471C20.1184 24.9471 20.1371 25.2533 20.1371 25.5658Z" fill="#FFC107"/>
<path d="M18.8564 25.4972C18.8564 25.5972 18.8564 25.7034 18.8439 25.8034V25.8097C18.8439 25.8159 18.8439 25.8159 18.8439 25.8159C18.8314 26.2659 18.7689 26.7097 18.6689 27.1097C18.6689 27.1347 18.6627 27.1534 18.6502 27.1784H15.7314L13.3252 26.6597L13.0064 26.5909L12.9564 26.6034L10.2877 27.1534L10.1689 27.1784H10.0002C9.6002 27.1784 9.20644 27.1409 8.8252 27.0659C8.76895 27.0534 8.7127 27.0409 8.65645 27.0284H8.6502C8.2127 26.9347 7.7877 26.7909 7.3877 26.6034C7.3752 26.5347 7.3627 26.4659 7.35645 26.3972C7.3127 26.1284 7.29395 25.8472 7.29395 25.5659C7.29395 25.4597 7.29395 25.3534 7.3002 25.2472C7.31895 24.9097 7.36895 24.5784 7.44395 24.2597C7.49395 24.0222 7.56269 23.7909 7.64394 23.5722C7.71269 23.3784 7.79395 23.1909 7.88144 23.0097C7.95644 22.8534 8.04395 22.7034 8.13145 22.5534C8.21895 22.4097 8.3127 22.2722 8.4127 22.1347C8.6627 21.7909 8.95645 21.4722 9.28145 21.1909C9.46895 21.0284 9.67519 20.8722 9.88769 20.7347C10.8002 20.1347 11.8939 19.7847 13.0752 19.7847C13.3064 19.7847 13.5314 19.7972 13.7502 19.8284H13.7627C14.4314 19.9034 15.0564 20.0909 15.6314 20.3722C15.6377 20.3722 15.6377 20.3722 15.6377 20.3722C16.5439 20.8159 17.3127 21.4847 17.8752 22.3097C17.9689 22.4472 18.0627 22.5972 18.1439 22.7472C18.2127 22.8659 18.2752 22.9909 18.3314 23.1159C18.4189 23.3097 18.5002 23.5159 18.5689 23.7222H18.5752C18.6439 23.9534 18.7064 24.1847 18.7502 24.4284V24.4347C18.8189 24.7784 18.8564 25.1347 18.8564 25.4972Z" fill="#FFD54F"/>
<path d="M17.5689 25.6284V25.6472C17.5689 26.0159 17.5252 26.3784 17.4377 26.7347C17.4064 26.8847 17.3627 27.0347 17.3064 27.1784H14.5064L13.0752 26.7847L11.6439 27.1784H10.0002C9.6002 27.1784 9.20645 27.1409 8.8252 27.0659C8.8127 27.0472 8.80645 27.0284 8.8002 27.0097C8.7127 26.7409 8.64394 26.4722 8.61269 26.1909C8.58769 26.0097 8.5752 25.8222 8.5752 25.6284C8.5752 25.5534 8.5752 25.4722 8.5877 25.3972C8.59395 25.1034 8.63769 24.8159 8.71269 24.5409C8.75019 24.3534 8.80645 24.1722 8.88145 23.9972C8.90645 23.9097 8.94395 23.8284 8.9877 23.7472C9.08145 23.5347 9.19394 23.3284 9.31894 23.1284C9.45644 22.9284 9.60645 22.7409 9.7752 22.5659C9.9752 22.3409 10.2002 22.1347 10.4564 21.9659C10.8939 21.6472 11.3939 21.4097 11.9377 21.2784C12.3002 21.1784 12.6814 21.1284 13.0752 21.1284C14.3252 21.1284 15.4439 21.6284 16.2564 22.4347C16.2877 22.4659 16.3252 22.5034 16.3564 22.5472H16.3627C16.4502 22.6409 16.5314 22.7347 16.6127 22.8409C16.8439 23.1347 17.0377 23.4534 17.1877 23.8034C17.2627 23.9659 17.3252 24.1347 17.3752 24.3097C17.3814 24.3347 17.3877 24.3534 17.3939 24.3784C17.4814 24.6847 17.5377 25.0034 17.5502 25.3347C17.5627 25.4284 17.5689 25.5284 17.5689 25.6284Z" fill="#FFE082"/>
<path d="M16.2873 25.628C16.2873 25.8843 16.2561 26.128 16.1873 26.3593C16.1248 26.6093 16.0311 26.8468 15.9123 27.0718C15.8936 27.1093 15.8498 27.178 15.8498 27.178H10.2998C10.2936 27.1718 10.2873 27.1593 10.2873 27.153C10.2123 27.0343 10.1498 26.9155 10.0998 26.7843C9.9748 26.4968 9.8998 26.1843 9.8748 25.8593C9.8623 25.7843 9.8623 25.703 9.8623 25.628C9.8623 25.5905 9.8623 25.5468 9.86855 25.5093C9.8748 25.2343 9.9123 24.9718 9.9873 24.728C10.0498 24.503 10.1311 24.2968 10.2373 24.0968C10.2373 24.0968 10.2436 24.0905 10.2436 24.0843C10.3186 23.953 10.3998 23.8218 10.4936 23.6968C10.7998 23.2843 11.2061 22.9468 11.6748 22.728C11.6811 22.728 11.6811 22.728 11.6811 22.728C11.8311 22.653 11.9873 22.5905 12.1498 22.5468C12.1498 22.5468 12.1498 22.5468 12.1561 22.5468C12.4436 22.4593 12.7561 22.4155 13.0748 22.4155C13.4436 22.4155 13.7998 22.4718 14.1248 22.5905C14.2436 22.6218 14.3561 22.6718 14.4686 22.728C14.4686 22.728 14.4686 22.728 14.4748 22.728C15.0123 22.9843 15.4686 23.3843 15.7811 23.8843C15.8436 23.978 15.8998 24.078 15.9498 24.1843C15.9748 24.228 15.9998 24.278 16.0186 24.3218C16.1623 24.6468 16.2498 25.003 16.2748 25.378C16.2811 25.4093 16.2811 25.4405 16.2811 25.478C16.2873 25.528 16.2873 25.578 16.2873 25.628Z" fill="#FFECB3"/>
<path d="M18.75 7.80322H11.25C8.8125 7.80322 6.875 9.74072 6.875 12.1782V19.6782C6.875 22.1157 8.8125 24.0532 11.25 24.0532H18.75C21.1875 24.0532 23.125 22.1157 23.125 19.6782V12.1782C23.125 9.74072 21.1875 7.80322 18.75 7.80322Z" stroke="white" stroke-width="2.08333" stroke-miterlimit="10" stroke-linecap="round" stroke-linejoin="round"/>
<path d="M19.375 11.5532C19.7202 11.5532 20 11.2734 20 10.9282C20 10.583 19.7202 10.3032 19.375 10.3032C19.0298 10.3032 18.75 10.583 18.75 10.9282C18.75 11.2734 19.0298 11.5532 19.375 11.5532Z" fill="white"/>
<path d="M15 19.6782C17.0711 19.6782 18.75 17.9993 18.75 15.9282C18.75 13.8572 17.0711 12.1782 15 12.1782C12.9289 12.1782 11.25 13.8572 11.25 15.9282C11.25 17.9993 12.9289 19.6782 15 19.6782Z" stroke="white" stroke-width="2.08333" stroke-miterlimit="10" stroke-linecap="round" stroke-linejoin="round"/>
</svg>
