<svg width="30" height="31" viewBox="0 0 30 31" fill="none" xmlns="http://www.w3.org/2000/svg">
<path d="M15 3.42822C11.6848 3.42822 8.50537 4.74518 6.16116 7.08939C3.81696 9.43359 2.5 12.613 2.5 15.9282C2.5 19.2434 3.81696 22.4229 6.16116 24.7671C8.50537 27.1113 11.6848 28.4282 15 28.4282C18.3152 28.4282 21.4946 27.1113 23.8388 24.7671C26.183 22.4229 27.5 19.2434 27.5 15.9282C27.5 12.613 26.183 9.43359 23.8388 7.08939C21.4946 4.74518 18.3152 3.42822 15 3.42822Z" fill="#0288D1"/>
<path d="M8.75 12.8032H11.25V22.1782H8.75V12.8032ZM9.9925 11.5532H9.97875C9.2325 11.5532 8.75 10.997 8.75 10.3026C8.75 9.59322 9.2475 9.05322 10.0069 9.05322C10.7675 9.05322 11.2356 9.59322 11.25 10.3026C11.25 10.997 10.7675 11.5532 9.9925 11.5532ZM21.875 16.2407C21.875 14.342 20.3363 12.8032 18.4375 12.8032C17.2738 12.8032 16.2469 13.3832 15.625 14.2682V12.8032H13.125V22.1782H15.625V17.1782C15.625 16.1426 16.4644 15.3032 17.5 15.3032C18.5356 15.3032 19.375 16.1426 19.375 17.1782V22.1782H21.875C21.875 22.1782 21.875 16.5038 21.875 16.2407Z" fill="white"/>
</svg>
