<svg width="64" height="46" viewBox="0 0 64 46" fill="none" xmlns="http://www.w3.org/2000/svg">
<path d="M14.9997 45.6667C12.6386 45.6667 10.6316 44.8403 8.97884 43.1875C7.32606 41.5348 6.49967 39.5278 6.49967 37.1667H0.833008V6.00004C0.833008 4.44171 1.38834 3.10815 2.49901 1.99937C3.60779 0.888707 4.94134 0.333374 6.49967 0.333374H46.1663V11.6667H54.6663L63.1663 23V37.1667H57.4997C57.4997 39.5278 56.6733 41.5348 55.0205 43.1875C53.3677 44.8403 51.3608 45.6667 48.9997 45.6667C46.6386 45.6667 44.6316 44.8403 42.9788 43.1875C41.3261 41.5348 40.4997 39.5278 40.4997 37.1667H23.4997C23.4997 39.5278 22.6733 41.5348 21.0205 43.1875C19.3677 44.8403 17.3608 45.6667 14.9997 45.6667ZM14.9997 40C15.8025 40 16.4758 39.728 17.0198 39.184C17.562 38.6419 17.833 37.9695 17.833 37.1667C17.833 36.3639 17.562 35.6915 17.0198 35.1494C16.4758 34.6054 15.8025 34.3334 14.9997 34.3334C14.1969 34.3334 13.5235 34.6054 12.9795 35.1494C12.4374 35.6915 12.1663 36.3639 12.1663 37.1667C12.1663 37.9695 12.4374 38.6419 12.9795 39.184C13.5235 39.728 14.1969 40 14.9997 40ZM6.49967 31.5H8.76634C9.56912 30.65 10.49 29.9653 11.5288 29.4459C12.5677 28.9264 13.7247 28.6667 14.9997 28.6667C16.2747 28.6667 17.4316 28.9264 18.4705 29.4459C19.5094 29.9653 20.4302 30.65 21.233 31.5H40.4997V6.00004H6.49967V31.5ZM48.9997 40C49.8025 40 50.4749 39.728 51.017 39.184C51.561 38.6419 51.833 37.9695 51.833 37.1667C51.833 36.3639 51.561 35.6915 51.017 35.1494C50.4749 34.6054 49.8025 34.3334 48.9997 34.3334C48.1969 34.3334 47.5245 34.6054 46.9823 35.1494C46.4383 35.6915 46.1663 36.3639 46.1663 37.1667C46.1663 37.9695 46.4383 38.6419 46.9823 39.184C47.5245 39.728 48.1969 40 48.9997 40ZM46.1663 25.8334H58.208L51.833 17.3334H46.1663V25.8334Z" fill="#F4B119"/>
</svg>
