<svg width="58" height="52" viewBox="0 0 58 52" fill="none" xmlns="http://www.w3.org/2000/svg">
<path d="M54.571 23.3083V45.8333C54.571 47.3917 54.0166 48.7262 52.9078 49.8368C51.7971 50.9456 50.4626 51.5 48.9043 51.5H9.23763C7.6793 51.5 6.34574 50.9456 5.23697 49.8368C4.1263 48.7262 3.57097 47.3917 3.57097 45.8333V23.3083C2.48486 22.3167 1.64713 21.0417 1.0578 19.4833C0.466579 17.925 0.454301 16.225 1.02097 14.3833L3.99597 4.75C4.37374 3.52222 5.04713 2.50694 6.01613 1.70417C6.98324 0.901389 8.1043 0.5 9.3793 0.5H48.7626C50.0376 0.5 51.1474 0.889111 52.0918 1.66733C53.0362 2.44744 53.721 3.475 54.146 4.75L57.121 14.3833C57.6876 16.225 57.6763 17.9014 57.087 19.4125C56.4957 20.9236 55.6571 22.2222 54.571 23.3083ZM35.3043 20.3333C36.5793 20.3333 37.5474 19.8961 38.2085 19.0215C38.8696 18.1488 39.1293 17.1694 38.9876 16.0833L37.4293 6.16667H31.9043V16.65C31.9043 17.6417 32.2349 18.5039 32.896 19.2368C33.5571 19.9678 34.3599 20.3333 35.3043 20.3333ZM22.5543 20.3333C23.6404 20.3333 24.5263 19.9678 25.212 19.2368C25.8957 18.5039 26.2376 17.6417 26.2376 16.65V6.16667H20.7126L19.1543 16.0833C18.9654 17.2167 19.2138 18.2083 19.8995 19.0583C20.5832 19.9083 21.4682 20.3333 22.5543 20.3333ZM9.94597 20.3333C10.796 20.3333 11.5392 20.0264 12.1758 19.4125C12.8142 18.7986 13.2043 18.0194 13.346 17.075L14.9043 6.16667H9.3793L6.54597 15.6583C6.26263 16.6028 6.41563 17.6181 7.00497 18.7042C7.59619 19.7903 8.57652 20.3333 9.94597 20.3333ZM48.196 20.3333C49.5654 20.3333 50.5571 19.7903 51.171 18.7042C51.7849 17.6181 51.9265 16.6028 51.596 15.6583L48.621 6.16667H43.2376L44.796 17.075C44.9376 18.0194 45.3277 18.7986 45.9661 19.4125C46.6027 20.0264 47.346 20.3333 48.196 20.3333ZM9.23763 45.8333H48.9043V25.8583C48.6682 25.9528 48.5152 26 48.4453 26H48.196C46.921 26 45.799 25.7875 44.83 25.3625C43.8629 24.9375 42.9071 24.2528 41.9626 23.3083C41.1126 24.1583 40.1446 24.8194 39.0585 25.2917C37.9724 25.7639 36.8154 26 35.5876 26C34.3126 26 33.1198 25.7639 32.0091 25.2917C30.9004 24.8194 29.921 24.1583 29.071 23.3083C28.2682 24.1583 27.336 24.8194 26.2745 25.2917C25.211 25.7639 24.0654 26 22.8376 26C21.4682 26 20.2281 25.7639 19.1175 25.2917C18.0087 24.8194 17.0293 24.1583 16.1793 23.3083C15.1876 24.3 14.2082 24.9961 13.2411 25.3965C12.2721 25.7988 11.1737 26 9.94597 26H9.62863C9.50963 26 9.3793 25.9528 9.23763 25.8583V45.8333Z" fill="#F4B119"/>
</svg>
