<svg width="339" height="145" viewBox="0 0 339 145" fill="none" xmlns="http://www.w3.org/2000/svg">
<path d="M11.8812 131.581L89.4585 95.9809L167.036 82.7396L244.613 39.9766L322.19 18.7036" stroke="white" stroke-width="10" stroke-linecap="round" stroke-linejoin="round"/>
<path d="M11.8812 131.581L89.4585 95.9809L167.036 82.7396L244.613 39.9766L322.19 18.7036" stroke="#F4B119" stroke-width="10" stroke-linecap="round" stroke-linejoin="round"/>
<path d="M23.5178 131.581C23.5178 138.769 18.3035 144.606 11.8812 144.606C5.45899 144.606 0.244629 138.769 0.244629 131.581C0.244629 124.393 5.45899 118.557 11.8812 118.557C18.3035 118.557 23.5178 124.393 23.5178 131.581Z" fill="#F4B119"/>
<path d="M101.095 95.5472C101.095 102.735 95.8806 108.571 89.4584 108.571C83.0361 108.571 77.8218 102.735 77.8218 95.5472C77.8218 88.3591 83.0361 82.5229 89.4584 82.5229C95.8806 82.5229 101.095 88.3591 101.095 95.5472Z" fill="#F4B119"/>
<path d="M178.672 82.5233C178.672 89.7114 173.458 95.5475 167.036 95.5475C160.614 95.5475 155.399 89.7114 155.399 82.5233C155.399 75.3352 160.614 69.499 167.036 69.499C173.458 69.499 178.672 75.3352 178.672 82.5233Z" fill="#F4B119"/>
<path d="M168.004 82.5223C168.004 83.1201 167.57 83.6056 167.036 83.6056C166.502 83.6056 166.068 83.1201 166.068 82.5223C166.068 81.9244 166.502 81.439 167.036 81.439C167.57 81.439 168.004 81.9244 168.004 82.5223Z" fill="white"/>
<path d="M256.571 40.4116C256.571 47.7984 251.213 53.7959 244.613 53.7959C238.013 53.7959 232.655 47.7984 232.655 40.4116C232.655 33.0248 238.013 27.0273 244.613 27.0273C251.213 27.0273 256.571 33.0248 256.571 40.4116Z" fill="#F4B119"/>
<path d="M251.256 40.4122C251.256 44.5154 248.279 47.8469 244.613 47.8469C240.947 47.8469 237.97 44.5154 237.97 40.4122C237.97 36.309 240.947 32.9775 244.613 32.9775C248.279 32.9775 251.256 36.309 251.256 40.4122Z" fill="white"/>
<path d="M338.255 18.3747C338.255 28.2983 331.057 36.3554 322.19 36.3554C313.324 36.3554 306.125 28.2983 306.125 18.3747C306.125 8.4512 313.324 0.394043 322.19 0.394043C331.057 0.394043 338.255 8.4512 338.255 18.3747Z" fill="#F4B119"/>
<path d="M332.891 18.3746C332.891 24.9848 328.096 30.3517 322.19 30.3517C316.285 30.3517 311.489 24.9848 311.489 18.3746C311.489 11.7644 316.285 6.39746 322.19 6.39746C328.096 6.39746 332.891 11.7644 332.891 18.3746Z" fill="white"/>
</svg>
