<svg width="24" height="19" viewBox="0 0 24 19" fill="none" xmlns="http://www.w3.org/2000/svg">
<path d="M23.2499 2.69635C22.423 3.0626 21.5337 3.30697 20.5955 3.4226C21.5493 2.85635 22.283 1.95322 22.6274 0.886348C21.7349 1.40947 20.7462 1.79385 19.6943 1.99635C18.8543 1.10572 17.6562 0.553223 16.3287 0.553223C13.7787 0.553223 11.7118 2.60197 11.7118 5.12822C11.7118 5.48572 11.7537 5.83385 11.8324 6.17197C7.99617 5.97947 4.59367 4.15572 2.31742 1.38822C1.91742 2.06447 1.69242 2.85635 1.69242 3.69197C1.69242 5.2801 2.50555 6.67822 3.74555 7.50197C2.98867 7.47885 2.27617 7.26822 1.65242 6.93072C1.65242 6.94447 1.65242 6.9651 1.65242 6.98447C1.65242 9.20385 3.2443 11.052 5.3543 11.4726C4.96867 11.5782 4.56117 11.637 4.14117 11.637C3.84305 11.637 3.55242 11.6032 3.27117 11.5526C3.85867 13.3663 5.56305 14.692 7.58242 14.7313C6.00242 15.9563 4.01242 16.6901 1.84867 16.6901C1.47492 16.6901 1.1093 16.6688 0.748047 16.6251C2.79242 17.9195 5.21992 18.6782 7.82555 18.6782C16.3162 18.6782 20.9612 11.7057 20.9612 5.65697C20.9612 5.45885 20.9549 5.26135 20.9455 5.06635C21.8518 4.42635 22.633 3.61885 23.2499 2.69635Z" fill="#03A9F4"/>
</svg>
